<svg width="100" height="100" viewBox="0 0 100 100" fill="none" xmlns="http://www.w3.org/2000/svg">
<circle cx="50" cy="50" r="50" fill="white"/>
<path d="M50 6.25C74.1211 6.25 93.75 25.8789 93.75 50C93.75 74.1211 74.1211 93.75 50 93.75C25.8789 93.75 6.25 74.1211 6.25 50C6.25 25.8789 25.8789 6.25 50 6.25ZM50 0C22.3877 0 0 22.3877 0 50C0 77.6123 22.3877 100 50 100C77.6123 100 100 77.6123 100 50C100 22.3877 77.6123 0 50 0ZM77.8748 66.7176L77.5939 65.8631C76.9348 63.8979 74.7619 61.8471 72.76 61.2977L65.3687 59.2773C63.3668 58.7342 60.5103 59.4666 59.0396 60.9375L56.3662 63.6109C46.6494 60.9803 39.0262 53.357 36.4016 43.6402L39.075 40.9668C40.5398 39.502 41.2723 36.6455 40.7291 34.6375L38.7146 27.2461C38.1715 25.2441 36.1084 23.0713 34.1432 22.4121L33.3008 22.1312C31.3293 21.4721 28.5156 22.1373 27.0508 23.6084L23.0469 27.6123C22.3328 28.3203 21.875 30.3527 21.875 30.359C21.7406 43.0666 26.7213 55.3041 35.7057 64.2945C44.6656 73.2545 56.8605 78.2291 69.5252 78.1189C69.5924 78.1189 71.6859 77.6734 72.4 76.9592L76.4039 72.9553C77.8687 71.4965 78.5277 68.6828 77.8748 66.7176Z" fill="#2D314D"/>
</svg>
