<svg width="350" height="350" viewBox="0 0 350 350" fill="none" xmlns="http://www.w3.org/2000/svg">
<rect width="350" height="350" rx="175" fill="url(#paint0_linear)"/>
<path d="M69.9393 76.8705L75.393 93.6555H93.0419L78.7637 104.029L84.2174 120.814L69.9393 110.44L55.6611 120.814L61.1149 104.029L46.8367 93.6555H64.4855L69.9393 76.8705Z" fill="#E3E4E5"/>
<path d="M176.822 21L182.276 37.785H199.924L185.646 48.1587L191.1 64.9437L176.822 54.57L162.544 64.9437L167.997 48.1587L153.719 37.785H171.368L176.822 21Z" fill="#E3E4E5"/>
<path d="M237.551 34.3603L243.004 51.1453H260.653L246.375 61.519L251.829 78.3041L237.551 67.9303L223.272 78.3041L228.726 61.519L214.448 51.1453H232.097L237.551 34.3603Z" fill="#E3E4E5"/>
<path d="M282.49 81.7288L287.944 98.5138H305.592L291.314 108.887L296.768 125.672L282.49 115.299L268.212 125.672L273.665 108.887L259.387 98.5138H277.036L282.49 81.7288Z" fill="#E3E4E5"/>
<path d="M300.708 140.028L306.162 156.813H323.811L309.533 167.187L314.987 183.972L300.708 173.598L286.43 183.972L291.884 167.187L277.606 156.813H295.255L300.708 140.028Z" fill="#E3E4E5"/>
<path d="M292.206 200.757L297.66 217.542H315.309L301.031 227.916L306.485 244.701L292.206 234.327L277.928 244.701L283.382 227.916L269.104 217.542H286.753L292.206 200.757Z" fill="#E3E4E5"/>
<path d="M259.413 250.555L264.867 267.34H282.516L268.237 277.713L273.691 294.498L259.413 284.125L245.135 294.498L250.589 277.713L236.31 267.34H253.959L259.413 250.555Z" fill="#E3E4E5"/>
<path d="M205.972 279.704L211.425 296.489H229.074L214.796 306.863L220.25 323.648L205.972 313.274L191.693 323.648L197.147 306.863L182.869 296.489H200.518L205.972 279.704Z" fill="#E3E4E5"/>
<path d="M141.599 276.061L147.053 292.846H164.702L150.424 303.219L155.877 320.004L141.599 309.631L127.321 320.004L132.775 303.219L118.497 292.846H136.145L141.599 276.061Z" fill="#E3E4E5"/>
<path d="M88.1579 244.482L93.6117 261.267H111.26L96.9823 271.641L102.436 288.426L88.1579 278.052L73.8797 288.426L79.3335 271.641L65.0553 261.267H82.7041L88.1579 244.482Z" fill="#E3E4E5"/>
<path d="M55.3644 193.47L60.8182 210.255H78.467L64.1888 220.628L69.6426 237.413L55.3644 227.04L41.0862 237.413L46.54 220.628L32.2618 210.255H49.9106L55.3644 193.47Z" fill="#E3E4E5"/>
<path d="M49.2915 132.741L54.7453 149.526H72.3941L58.1159 159.9L63.5697 176.685L49.2915 166.311L35.0133 176.685L40.4671 159.9L26.1889 149.526H43.8377L49.2915 132.741Z" fill="#E3E4E5"/>
<path d="M113.664 34.3603L119.118 51.1453H136.767L122.488 61.519L127.942 78.3041L113.664 67.9303L99.3858 78.3041L104.84 61.519L90.5614 51.1453H108.21L113.664 34.3603Z" fill="#E3E4E5"/>
<path d="M224.578 249H117.117V245.035C121.492 245.035 124.956 244.762 127.508 244.215C130.151 243.668 132.156 242.665 133.523 241.207C134.891 239.658 135.802 237.561 136.258 234.918C136.714 232.184 136.941 228.674 136.941 224.391V133.336C136.941 128.961 136.759 125.452 136.395 122.809C136.03 120.165 135.164 118.115 133.797 116.656C132.43 115.198 130.424 114.241 127.781 113.785C125.138 113.238 121.583 112.965 117.117 112.965V109.273H224.578L226.219 139.762H222.391C221.206 135.296 220.066 131.604 218.973 128.688C217.97 125.68 216.557 123.31 214.734 121.578C213.003 119.846 210.587 118.616 207.488 117.887C204.48 117.158 200.379 116.793 195.184 116.793H156.629V172.027H187.391C191.674 172.027 195.092 171.754 197.645 171.207C200.288 170.569 202.384 169.521 203.934 168.062C205.574 166.513 206.759 164.462 207.488 161.91C208.309 159.267 208.992 155.895 209.539 151.793H213.367V200.602H209.539C208.992 196.5 208.309 193.128 207.488 190.484C206.759 187.841 205.62 185.745 204.07 184.195C202.521 182.555 200.424 181.415 197.781 180.777C195.229 180.139 191.766 179.82 187.391 179.82H156.629V225.758C156.629 228.492 156.674 230.862 156.766 232.867C156.948 234.781 157.404 236.376 158.133 237.652C158.953 238.928 160.138 239.885 161.688 240.523C163.237 241.161 165.47 241.48 168.387 241.48H191.902C198.009 241.48 203.022 240.979 206.941 239.977C210.861 238.974 214.233 237.379 217.059 235.191C219.975 233.004 222.573 230.178 224.852 226.715C227.13 223.16 229.682 218.922 232.508 214H236.883L224.578 249Z" fill="#E3E4E5"/>
<defs>
<linearGradient id="paint0_linear" x1="0" y1="0" x2="350" y2="358.5" gradientUnits="userSpaceOnUse">
<stop stop-color="#4D92FF"/>
<stop offset="0.963542" stop-color="#045DE9"/>
</linearGradient>
</defs>
</svg>
