<svg width="543" height="182" viewBox="0 0 543 182" fill="none" xmlns="http://www.w3.org/2000/svg">
<path d="M22.4697 27.2727L25.1966 35.4662H34.021L26.8819 40.53L29.6088 48.7235L22.4697 43.6597L15.3306 48.7235L18.0575 40.53L10.9184 35.4662H19.7428L22.4697 27.2727Z" fill="#FAFF00"/>
<path d="M75.9109 0L78.6378 8.19347H87.4622L80.3231 13.2573L83.05 21.4508L75.9109 16.3869L68.7719 21.4508L71.4987 13.2573L64.3597 8.19347H73.1841L75.9109 0Z" fill="#FAFF00"/>
<path d="M106.275 6.52174L109.002 14.7152H117.827L110.688 19.7791L113.414 27.9725L106.275 22.9087L99.1362 27.9725L101.863 19.7791L94.724 14.7152H103.548L106.275 6.52174Z" fill="#FAFF00"/>
<path d="M128.745 29.6443L131.472 37.8378H140.296L133.157 42.9016L135.884 51.0951L128.745 46.0312L121.606 51.0951L124.333 42.9016L117.194 37.8378H126.018L128.745 29.6443Z" fill="#FAFF00"/>
<path d="M137.854 58.1028L140.581 66.2962H149.406L142.266 71.3601L144.993 79.5536L137.854 74.4897L130.715 79.5536L133.442 71.3601L126.303 66.2962H135.127L137.854 58.1028Z" fill="#FAFF00"/>
<path d="M133.603 87.747L136.33 95.9405H145.155L138.015 101.004L140.742 109.198L133.603 104.134L126.464 109.198L129.191 101.004L122.052 95.9405H130.876L133.603 87.747Z" fill="#FAFF00"/>
<path d="M117.206 112.055L119.933 120.249H128.758L121.619 125.313L124.346 133.506L117.206 128.442L110.067 133.506L112.794 125.313L105.655 120.249H114.48L117.206 112.055Z" fill="#FAFF00"/>
<path d="M90.4858 126.285L93.2127 134.478H102.037L94.898 139.542L97.6249 147.735L90.4858 142.671L83.3467 147.735L86.0736 139.542L78.9345 134.478H87.7589L90.4858 126.285Z" fill="#FAFF00"/>
<path d="M58.2996 124.506L61.0265 132.699H69.8509L62.7118 137.763L65.4387 145.957L58.2996 140.893L51.1605 145.957L53.8874 137.763L46.7483 132.699H55.5727L58.2996 124.506Z" fill="#FAFF00"/>
<path d="M31.5789 109.091L34.3058 117.284H43.1302L35.9911 122.348L38.718 130.542L31.5789 125.478L24.4398 130.542L27.1667 122.348L20.0276 117.284H28.852L31.5789 109.091Z" fill="#FAFF00"/>
<path d="M15.1822 84.1897L17.9091 92.3832H26.7335L19.5944 97.447L22.3213 105.64L15.1822 100.577L8.0431 105.64L10.77 97.447L3.63089 92.3832H12.4553L15.1822 84.1897Z" fill="#FAFF00"/>
<path d="M12.1457 54.5454L14.8726 62.7389H23.697L16.558 67.8028L19.2848 75.9962L12.1457 70.9324L5.00666 75.9962L7.73355 67.8028L0.594456 62.7389H9.41886L12.1457 54.5454Z" fill="#FAFF00"/>
<path d="M44.332 6.52174L47.0589 14.7152H55.8833L48.7442 19.7791L51.4711 27.9725L44.332 22.9087L37.1929 27.9725L39.9198 19.7791L32.7807 14.7152H41.6051L44.332 6.52174Z" fill="#FAFF00"/>
<g filter="url(#filter0_d)">
<path d="M194.648 57.4922C192.289 57.4922 190.117 57.0625 188.133 56.2031C186.164 55.3281 184.453 54.1094 183 52.5469C181.547 50.9844 180.422 49.1562 179.625 47.0625C178.844 44.9531 178.453 42.6641 178.453 40.1953V39.6562C178.453 37.2031 178.844 34.9297 179.625 32.8359C180.422 30.7422 181.539 28.9141 182.977 27.3516C184.43 25.7891 186.141 24.5703 188.109 23.6953C190.078 22.8203 192.242 22.3828 194.602 22.3828C196.914 22.3828 199.062 22.8203 201.047 23.6953C203.031 24.5703 204.766 25.7891 206.25 27.3516C207.75 28.9141 208.914 30.7422 209.742 32.8359C210.57 34.9297 210.984 37.2031 210.984 39.6562V40.1953C210.984 42.6641 210.57 44.9531 209.742 47.0625C208.914 49.1562 207.758 50.9844 206.273 52.5469C204.789 54.1094 203.055 55.3281 201.07 56.2031C199.086 57.0625 196.945 57.4922 194.648 57.4922ZM194.648 51.2578C197.227 51.2578 199.227 50.25 200.648 48.2344C202.086 46.2031 202.805 43.5234 202.805 40.1953V39.6094C202.805 36.3438 202.086 33.7031 200.648 31.6875C199.211 29.6562 197.195 28.6406 194.602 28.6406C191.867 28.6406 189.859 29.6406 188.578 31.6406C187.312 33.6406 186.68 36.2969 186.68 39.6094V40.1953C186.68 43.5391 187.328 46.2188 188.625 48.2344C189.922 50.25 191.93 51.2578 194.648 51.2578ZM213.234 57V52.1953L216.773 51.4453V28.4531L213.234 27.7031V22.875H229.828C232.547 22.875 234.906 23.3516 236.906 24.3047C238.906 25.2578 240.445 26.5859 241.523 28.2891C242.617 29.9766 243.164 31.9453 243.164 34.1953C243.164 36.4453 242.617 38.4141 241.523 40.1016C240.445 41.7891 238.906 43.1016 236.906 44.0391C234.906 44.9766 232.547 45.4453 229.828 45.4453H225V51.4453L228.539 52.1953V57H213.234ZM225 39.1406H229.828C231.5 39.1406 232.766 38.6875 233.625 37.7812C234.5 36.8594 234.938 35.6797 234.938 34.2422C234.938 32.7578 234.5 31.5391 233.625 30.5859C232.766 29.6328 231.5 29.1562 229.828 29.1562H225V39.1406ZM261.023 57.4922C258.664 57.4922 256.492 57.0625 254.508 56.2031C252.539 55.3281 250.828 54.1094 249.375 52.5469C247.922 50.9844 246.797 49.1562 246 47.0625C245.219 44.9531 244.828 42.6641 244.828 40.1953V39.6562C244.828 37.2031 245.219 34.9297 246 32.8359C246.797 30.7422 247.914 28.9141 249.352 27.3516C250.805 25.7891 252.516 24.5703 254.484 23.6953C256.453 22.8203 258.617 22.3828 260.977 22.3828C263.289 22.3828 265.438 22.8203 267.422 23.6953C269.406 24.5703 271.141 25.7891 272.625 27.3516C274.125 28.9141 275.289 30.7422 276.117 32.8359C276.945 34.9297 277.359 37.2031 277.359 39.6562V40.1953C277.359 42.6641 276.945 44.9531 276.117 47.0625C275.289 49.1562 274.133 50.9844 272.648 52.5469C271.164 54.1094 269.43 55.3281 267.445 56.2031C265.461 57.0625 263.32 57.4922 261.023 57.4922ZM261.023 51.2578C263.602 51.2578 265.602 50.25 267.023 48.2344C268.461 46.2031 269.18 43.5234 269.18 40.1953V39.6094C269.18 36.3438 268.461 33.7031 267.023 31.6875C265.586 29.6562 263.57 28.6406 260.977 28.6406C258.242 28.6406 256.234 29.6406 254.953 31.6406C253.688 33.6406 253.055 36.2969 253.055 39.6094V40.1953C253.055 43.5391 253.703 46.2188 255 48.2344C256.297 50.25 258.305 51.2578 261.023 51.2578ZM279.609 57V52.1953L283.148 51.4453V28.4531L279.609 27.7031V22.8516H296.391C299.094 22.8516 301.438 23.2812 303.422 24.1406C305.406 25 306.938 26.2266 308.016 27.8203C309.094 29.3984 309.633 31.2734 309.633 33.4453C309.633 35.3047 309.156 37.0469 308.203 38.6719C307.266 40.2969 305.984 41.6328 304.359 42.6797L307.922 51.3984L311.156 52.2188V57H301.219L296.977 44.6953L291.375 44.625V51.4453L294.914 52.1953V57H279.609ZM291.375 38.3203H296.484C298.078 38.3203 299.305 37.9531 300.164 37.2188C301.023 36.4688 301.453 35.3906 301.453 33.9844C301.453 32.5312 301.016 31.3672 300.141 30.4922C299.266 29.6016 298.016 29.1562 296.391 29.1562H291.375V38.3203ZM319.711 57V52.1953L323.273 51.4453V29.25H318L317.789 32.9297H311.578V22.875H343.289V32.9297H337.008L336.82 29.25H331.5V51.4453L335.062 52.1953V57H319.711ZM362.086 57.4922C359.148 57.4922 356.586 57.0234 354.398 56.0859C352.227 55.1328 350.547 53.7422 349.359 51.9141C348.172 50.0859 347.578 47.8516 347.578 45.2109V28.4531L344.062 27.7031V22.875H359.344V27.7031L355.805 28.4531V45.2109C355.805 47.2734 356.344 48.8047 357.422 49.8047C358.5 50.7891 360.039 51.2812 362.039 51.2812C366.227 51.2812 368.32 49.2578 368.32 45.2109V28.4531L364.805 27.7031V22.875H380.086V27.7031L376.547 28.4531V45.2109C376.547 47.8047 375.938 50.0234 374.719 51.8672C373.5 53.6953 371.805 55.0938 369.633 56.0625C367.477 57.0156 364.961 57.4922 362.086 57.4922ZM381.445 57V52.1953L384.961 51.4453V28.4531L381.445 27.7031V22.875H393.328L407.016 44.7188H407.156V28.4531L402.68 27.7031V22.875H417.984V27.7031L414.445 28.4531V57H406.336L392.391 35.625H392.25V51.4453L396.75 52.1953V57H381.445ZM419.25 57V52.1953L422.789 51.4453V28.4531L419.25 27.7031V22.875H434.531V27.7031L430.992 28.4531V51.4453L434.531 52.1953V57H419.25ZM436.406 57V52.1953L439.992 51.3281V28.5938L436.406 27.7031V22.875H452.391C455.469 22.875 458.195 23.5938 460.57 25.0312C462.945 26.4531 464.805 28.4297 466.148 30.9609C467.492 33.4766 468.164 36.3828 468.164 39.6797V40.2188C468.164 43.5156 467.492 46.4297 466.148 48.9609C464.805 51.4766 462.945 53.4453 460.57 54.8672C458.195 56.2891 455.469 57 452.391 57H436.406ZM448.219 50.7656H451.969C454.562 50.7656 456.531 49.8047 457.875 47.8828C459.219 45.9453 459.891 43.3906 459.891 40.2188V39.6562C459.891 36.5 459.219 33.9609 457.875 32.0391C456.531 30.1016 454.562 29.1328 451.969 29.1328H448.219V50.7656ZM469.195 57V52.1953L471.586 51.8438L481.758 22.875H490.664L500.859 51.8438L503.25 52.1953V57H490.5V52.1953L492.727 51.7734L491.695 48.0703H480.727L479.742 51.7734L481.969 52.1953V57H469.195ZM482.461 42.3047H489.938L486.609 31.9688L486.234 30.7734H486.094L485.695 32.0859L482.461 42.3047ZM504.75 57V52.1953L508.336 51.3281V28.5938L504.75 27.7031V22.875H520.734C523.812 22.875 526.539 23.5938 528.914 25.0312C531.289 26.4531 533.148 28.4297 534.492 30.9609C535.836 33.4766 536.508 36.3828 536.508 39.6797V40.2188C536.508 43.5156 535.836 46.4297 534.492 48.9609C533.148 51.4766 531.289 53.4453 528.914 54.8672C526.539 56.2891 523.812 57 520.734 57H504.75ZM516.562 50.7656H520.312C522.906 50.7656 524.875 49.8047 526.219 47.8828C527.562 45.9453 528.234 43.3906 528.234 40.2188V39.6562C528.234 36.5 527.562 33.9609 526.219 32.0391C524.875 30.1016 522.906 29.1328 520.312 29.1328H516.562V50.7656ZM177.938 120V115.195L181.477 114.445V91.4531L177.938 90.7031V85.875H205.195V95.7188H198.984L198.797 92.2031H189.703V99.2109H200.602V105.516H189.703V113.648H199.242L199.43 109.969H205.57V120H177.938ZM226.195 120.492C223.258 120.492 220.695 120.023 218.508 119.086C216.336 118.133 214.656 116.742 213.469 114.914C212.281 113.086 211.688 110.852 211.688 108.211V91.4531L208.172 90.7031V85.875H223.453V90.7031L219.914 91.4531V108.211C219.914 110.273 220.453 111.805 221.531 112.805C222.609 113.789 224.148 114.281 226.148 114.281C230.336 114.281 232.43 112.258 232.43 108.211V91.4531L228.914 90.7031V85.875H244.195V90.7031L240.656 91.4531V108.211C240.656 110.805 240.047 113.023 238.828 114.867C237.609 116.695 235.914 118.094 233.742 119.062C231.586 120.016 229.07 120.492 226.195 120.492ZM245.578 120V115.195L249.117 114.445V91.4531L245.578 90.7031V85.8516H262.359C265.062 85.8516 267.406 86.2812 269.391 87.1406C271.375 88 272.906 89.2266 273.984 90.8203C275.062 92.3984 275.602 94.2734 275.602 96.4453C275.602 98.3047 275.125 100.047 274.172 101.672C273.234 103.297 271.953 104.633 270.328 105.68L273.891 114.398L277.125 115.219V120H267.188L262.945 107.695L257.344 107.625V114.445L260.883 115.195V120H245.578ZM257.344 101.32H262.453C264.047 101.32 265.273 100.953 266.133 100.219C266.992 99.4688 267.422 98.3906 267.422 96.9844C267.422 95.5312 266.984 94.3672 266.109 93.4922C265.234 92.6016 263.984 92.1562 262.359 92.1562H257.344V101.32ZM295.617 120.492C293.258 120.492 291.086 120.062 289.102 119.203C287.133 118.328 285.422 117.109 283.969 115.547C282.516 113.984 281.391 112.156 280.594 110.062C279.812 107.953 279.422 105.664 279.422 103.195V102.656C279.422 100.203 279.812 97.9297 280.594 95.8359C281.391 93.7422 282.508 91.9141 283.945 90.3516C285.398 88.7891 287.109 87.5703 289.078 86.6953C291.047 85.8203 293.211 85.3828 295.57 85.3828C297.883 85.3828 300.031 85.8203 302.016 86.6953C304 87.5703 305.734 88.7891 307.219 90.3516C308.719 91.9141 309.883 93.7422 310.711 95.8359C311.539 97.9297 311.953 100.203 311.953 102.656V103.195C311.953 105.664 311.539 107.953 310.711 110.062C309.883 112.156 308.727 113.984 307.242 115.547C305.758 117.109 304.023 118.328 302.039 119.203C300.055 120.062 297.914 120.492 295.617 120.492ZM295.617 114.258C298.195 114.258 300.195 113.25 301.617 111.234C303.055 109.203 303.773 106.523 303.773 103.195V102.609C303.773 99.3438 303.055 96.7031 301.617 94.6875C300.18 92.6562 298.164 91.6406 295.57 91.6406C292.836 91.6406 290.828 92.6406 289.547 94.6406C288.281 96.6406 287.648 99.2969 287.648 102.609V103.195C287.648 106.539 288.297 109.219 289.594 111.234C290.891 113.25 292.898 114.258 295.617 114.258ZM314.203 120V115.195L317.742 114.445V91.4531L314.203 90.7031V85.875H330.797C333.516 85.875 335.875 86.3516 337.875 87.3047C339.875 88.2578 341.414 89.5859 342.492 91.2891C343.586 92.9766 344.133 94.9453 344.133 97.1953C344.133 99.4453 343.586 101.414 342.492 103.102C341.414 104.789 339.875 106.102 337.875 107.039C335.875 107.977 333.516 108.445 330.797 108.445H325.969V114.445L329.508 115.195V120H314.203ZM325.969 102.141H330.797C332.469 102.141 333.734 101.688 334.594 100.781C335.469 99.8594 335.906 98.6797 335.906 97.2422C335.906 95.7578 335.469 94.5391 334.594 93.5859C333.734 92.6328 332.469 92.1562 330.797 92.1562H325.969V102.141ZM339.492 120V115.195L341.883 114.844L352.055 85.875H360.961L371.156 114.844L373.547 115.195V120H360.797V115.195L363.023 114.773L361.992 111.07H351.023L350.039 114.773L352.266 115.195V120H339.492ZM352.758 105.305H360.234L356.906 94.9688L356.531 93.7734H356.391L355.992 95.0859L352.758 105.305Z" fill="white"/>
</g>
<g filter="url(#filter1_d)">
<path d="M181.23 173V170.598L183.012 170.223V159.125H180.375L180.27 160.965H177.164V155.938H193.02V160.965H189.879L189.785 159.125H187.125V170.223L188.906 170.598V173H181.23ZM198.539 173.246C197.227 173.246 196.195 172.832 195.445 172.004C194.695 171.176 194.32 169.895 194.32 168.16V163.109L192.961 162.734V160.32H198.434V168.184C198.434 169.457 198.957 170.094 200.004 170.094C200.309 170.094 200.609 170.039 200.906 169.93C201.211 169.812 201.48 169.641 201.715 169.414V163.109L200.332 162.734V160.32H205.828V170.223L207.41 170.598V173H202.254L201.984 171.559C201.141 172.684 199.992 173.246 198.539 173.246ZM220.395 173.246C219.137 173.246 218.055 172.969 217.148 172.414C216.242 171.859 215.547 171.098 215.062 170.129C214.578 169.16 214.336 168.055 214.336 166.812V166.543C214.336 165.27 214.586 164.148 215.086 163.18C215.594 162.211 216.297 161.453 217.195 160.906C218.102 160.359 219.156 160.086 220.359 160.086C221.57 160.086 222.605 160.27 223.465 160.637C224.332 161.004 225.016 161.387 225.516 161.785L225.445 165.781H222.387L221.895 163.484C221.762 163.352 221.582 163.242 221.355 163.156C221.137 163.07 220.953 163.027 220.805 163.027C219.93 163.027 219.316 163.312 218.965 163.883C218.621 164.453 218.449 165.34 218.449 166.543V166.812C218.449 167.648 218.547 168.309 218.742 168.793C218.945 169.27 219.199 169.609 219.504 169.812C219.809 170.016 220.121 170.117 220.441 170.117C220.934 170.117 221.312 169.996 221.578 169.754C221.852 169.504 222.062 169.141 222.211 168.664H225.656L225.703 168.734C225.516 169.742 225.223 170.582 224.824 171.254C224.426 171.918 223.871 172.418 223.16 172.754C222.457 173.082 221.535 173.246 220.395 173.246ZM231.281 173.246C230.055 173.246 229.055 172.898 228.281 172.203C227.508 171.508 227.121 170.582 227.121 169.426C227.121 168.238 227.598 167.266 228.551 166.508C229.512 165.75 230.961 165.371 232.898 165.371H234.223V164.621C234.223 164.113 234.078 163.684 233.789 163.332C233.5 162.973 233.043 162.793 232.418 162.793C231.895 162.793 231.438 162.922 231.047 163.18L230.766 164.797H227.871L227.812 161.27C228.531 160.949 229.281 160.672 230.062 160.438C230.852 160.203 231.73 160.086 232.699 160.086C234.426 160.086 235.797 160.484 236.812 161.281C237.828 162.07 238.336 163.199 238.336 164.668V169.344C238.336 169.523 238.336 169.699 238.336 169.871C238.344 170.043 238.363 170.207 238.395 170.363L239.766 170.598V173H234.961C234.859 172.859 234.75 172.672 234.633 172.438C234.516 172.203 234.434 171.969 234.387 171.734C234.004 172.211 233.574 172.582 233.098 172.848C232.621 173.113 232.016 173.246 231.281 173.246ZM232.547 170.34C232.844 170.34 233.141 170.281 233.438 170.164C233.742 170.039 234.004 169.855 234.223 169.613V167.785H232.945C232.391 167.785 231.961 167.906 231.656 168.148C231.359 168.391 231.211 168.711 231.211 169.109C231.211 169.492 231.336 169.793 231.586 170.012C231.836 170.23 232.156 170.34 232.547 170.34ZM240.422 173V170.598L241.922 170.223V163.109L240.141 162.734V160.32H245.777L245.906 162.008C246.32 161.398 246.824 160.926 247.418 160.59C248.012 160.254 248.699 160.086 249.48 160.086C250.27 160.086 250.945 160.258 251.508 160.602C252.078 160.938 252.508 161.453 252.797 162.148C253.18 161.492 253.672 160.984 254.273 160.625C254.883 160.266 255.598 160.086 256.418 160.086C257.645 160.086 258.609 160.5 259.312 161.328C260.016 162.156 260.367 163.43 260.367 165.148V170.223L261.867 170.598V173H255.059V170.598L256.266 170.223V165.148C256.266 164.406 256.148 163.902 255.914 163.637C255.688 163.371 255.355 163.238 254.918 163.238C254.207 163.238 253.629 163.504 253.184 164.035V170.223L254.238 170.598V173H248.039V170.598L249.094 170.223V165.148C249.094 164.406 248.98 163.902 248.754 163.637C248.527 163.371 248.188 163.238 247.734 163.238C247.031 163.238 246.457 163.508 246.012 164.047V170.223L247.219 170.598V173H240.422ZM262.547 173V170.598L264.035 170.223V163.109L262.266 162.734V160.32H268.148V170.223L269.625 170.598V173H262.547ZM263.918 157.918V154.719H268.148V157.918H263.918ZM270.281 173V170.598L271.758 170.223V163.109L270 162.734V160.32H275.648L275.789 162.09C276.211 161.457 276.727 160.965 277.336 160.613C277.953 160.262 278.652 160.086 279.434 160.086C280.621 160.086 281.559 160.488 282.246 161.293C282.934 162.098 283.277 163.375 283.277 165.125V170.223L284.754 170.598V173H277.957V170.598L279.152 170.223V165.113C279.152 164.434 279.016 163.953 278.742 163.672C278.469 163.383 278.078 163.238 277.57 163.238C276.852 163.238 276.285 163.512 275.871 164.059V170.223L276.926 170.598V173H270.281ZM291.715 173.246C290.41 173.246 289.293 172.977 288.363 172.438C287.441 171.891 286.734 171.133 286.242 170.164C285.758 169.188 285.516 168.059 285.516 166.777V166.543C285.516 165.277 285.758 164.16 286.242 163.191C286.734 162.223 287.441 161.465 288.363 160.918C289.285 160.363 290.395 160.086 291.691 160.086C292.996 160.086 294.105 160.359 295.02 160.906C295.941 161.453 296.645 162.211 297.129 163.18C297.621 164.148 297.867 165.27 297.867 166.543V166.777C297.867 168.051 297.621 169.176 297.129 170.152C296.645 171.121 295.941 171.879 295.02 172.426C294.105 172.973 293.004 173.246 291.715 173.246ZM291.715 170.117C292.465 170.117 292.996 169.82 293.309 169.227C293.621 168.625 293.777 167.809 293.777 166.777V166.543C293.777 165.543 293.617 164.742 293.297 164.141C292.984 163.531 292.449 163.227 291.691 163.227C290.934 163.227 290.398 163.531 290.086 164.141C289.781 164.742 289.629 165.543 289.629 166.543V166.777C289.629 167.816 289.781 168.633 290.086 169.227C290.398 169.82 290.941 170.117 291.715 170.117ZM309.398 173.246C308.172 173.246 307.172 172.898 306.398 172.203C305.625 171.508 305.238 170.582 305.238 169.426C305.238 168.238 305.715 167.266 306.668 166.508C307.629 165.75 309.078 165.371 311.016 165.371H312.34V164.621C312.34 164.113 312.195 163.684 311.906 163.332C311.617 162.973 311.16 162.793 310.535 162.793C310.012 162.793 309.555 162.922 309.164 163.18L308.883 164.797H305.988L305.93 161.27C306.648 160.949 307.398 160.672 308.18 160.438C308.969 160.203 309.848 160.086 310.816 160.086C312.543 160.086 313.914 160.484 314.93 161.281C315.945 162.07 316.453 163.199 316.453 164.668V169.344C316.453 169.523 316.453 169.699 316.453 169.871C316.461 170.043 316.48 170.207 316.512 170.363L317.883 170.598V173H313.078C312.977 172.859 312.867 172.672 312.75 172.438C312.633 172.203 312.551 171.969 312.504 171.734C312.121 172.211 311.691 172.582 311.215 172.848C310.738 173.113 310.133 173.246 309.398 173.246ZM310.664 170.34C310.961 170.34 311.258 170.281 311.555 170.164C311.859 170.039 312.121 169.855 312.34 169.613V167.785H311.062C310.508 167.785 310.078 167.906 309.773 168.148C309.477 168.391 309.328 168.711 309.328 169.109C309.328 169.492 309.453 169.793 309.703 170.012C309.953 170.23 310.273 170.34 310.664 170.34ZM318.516 173V170.598L320.016 170.223V157.508L318.234 157.133V154.719H324.129V170.223L325.617 170.598V173H318.516ZM332.59 173V170.598L334.078 170.223V163.156H332.25V160.32H334.078V159.043C334.078 157.574 334.52 156.445 335.402 155.656C336.293 154.867 337.535 154.473 339.129 154.473C339.551 154.473 339.996 154.508 340.465 154.578C340.934 154.641 341.301 154.711 341.566 154.789L341.262 157.824C340.801 157.699 340.312 157.637 339.797 157.637C338.727 157.637 338.191 158.105 338.191 159.043V160.32H341.133V163.156H338.191V170.223L340.465 170.598V173H332.59ZM347.414 173.246C346.102 173.246 345.07 172.832 344.32 172.004C343.57 171.176 343.195 169.895 343.195 168.16V163.109L341.836 162.734V160.32H347.309V168.184C347.309 169.457 347.832 170.094 348.879 170.094C349.184 170.094 349.484 170.039 349.781 169.93C350.086 169.812 350.355 169.641 350.59 169.414V163.109L349.207 162.734V160.32H354.703V170.223L356.285 170.598V173H351.129L350.859 171.559C350.016 172.684 348.867 173.246 347.414 173.246ZM362.625 173.27C361.297 173.27 360.285 172.918 359.59 172.215C358.902 171.504 358.559 170.383 358.559 168.852V163.156H356.977V160.32H358.559V157.191H362.648V160.32H364.723V163.156H362.648V168.84C362.648 169.254 362.742 169.543 362.93 169.707C363.117 169.871 363.375 169.953 363.703 169.953C363.844 169.953 363.984 169.945 364.125 169.93C364.266 169.914 364.406 169.895 364.547 169.871L364.828 172.941C364.086 173.16 363.352 173.27 362.625 173.27ZM371.227 173.246C369.914 173.246 368.883 172.832 368.133 172.004C367.383 171.176 367.008 169.895 367.008 168.16V163.109L365.648 162.734V160.32H371.121V168.184C371.121 169.457 371.645 170.094 372.691 170.094C372.996 170.094 373.297 170.039 373.594 169.93C373.898 169.812 374.168 169.641 374.402 169.414V163.109L373.02 162.734V160.32H378.516V170.223L380.098 170.598V173H374.941L374.672 171.559C373.828 172.684 372.68 173.246 371.227 173.246ZM381.574 173V170.598L383.051 170.223V163.109L381.293 162.734V160.32H386.93L387.023 161.867L387.047 162.184C387.594 160.785 388.465 160.086 389.66 160.086C389.832 160.086 390.035 160.102 390.27 160.133C390.504 160.156 390.742 160.203 390.984 160.273L390.574 164.047L388.816 163.965C388.41 163.949 388.09 163.996 387.855 164.105C387.629 164.207 387.398 164.379 387.164 164.621V170.223L388.641 170.598V173H381.574ZM397.77 173.246C396.465 173.246 395.348 172.977 394.418 172.438C393.496 171.891 392.789 171.133 392.297 170.164C391.812 169.188 391.57 168.059 391.57 166.777V166.543C391.57 165.277 391.812 164.16 392.297 163.191C392.789 162.223 393.496 161.465 394.418 160.918C395.34 160.363 396.449 160.086 397.746 160.086C399.051 160.086 400.16 160.359 401.074 160.906C401.996 161.453 402.699 162.211 403.184 163.18C403.676 164.148 403.922 165.27 403.922 166.543V166.777C403.922 168.051 403.676 169.176 403.184 170.152C402.699 171.121 401.996 171.879 401.074 172.426C400.16 172.973 399.059 173.246 397.77 173.246ZM397.77 170.117C398.52 170.117 399.051 169.82 399.363 169.227C399.676 168.625 399.832 167.809 399.832 166.777V166.543C399.832 165.543 399.672 164.742 399.352 164.141C399.039 163.531 398.504 163.227 397.746 163.227C396.988 163.227 396.453 163.531 396.141 164.141C395.836 164.742 395.684 165.543 395.684 166.543V166.777C395.684 167.816 395.836 168.633 396.141 169.227C396.453 169.82 396.996 170.117 397.77 170.117Z" fill="white"/>
</g>
<defs>
<filter id="filter0_d" x="173.938" y="22.3828" width="366.57" height="106.109" filterUnits="userSpaceOnUse" color-interpolation-filters="sRGB">
<feFlood flood-opacity="0" result="BackgroundImageFix"/>
<feColorMatrix in="SourceAlpha" type="matrix" values="0 0 0 0 0 0 0 0 0 0 0 0 0 0 0 0 0 0 127 0" result="hardAlpha"/>
<feOffset dy="4"/>
<feGaussianBlur stdDeviation="2"/>
<feComposite in2="hardAlpha" operator="out"/>
<feColorMatrix type="matrix" values="0 0 0 0 0 0 0 0 0 0 0 0 0 0 0 0 0 0 0.25 0"/>
<feBlend mode="normal" in2="BackgroundImageFix" result="effect1_dropShadow"/>
<feBlend mode="normal" in="SourceGraphic" in2="effect1_dropShadow" result="shape"/>
</filter>
<filter id="filter1_d" x="173.164" y="154.473" width="234.758" height="26.7969" filterUnits="userSpaceOnUse" color-interpolation-filters="sRGB">
<feFlood flood-opacity="0" result="BackgroundImageFix"/>
<feColorMatrix in="SourceAlpha" type="matrix" values="0 0 0 0 0 0 0 0 0 0 0 0 0 0 0 0 0 0 127 0" result="hardAlpha"/>
<feOffset dy="4"/>
<feGaussianBlur stdDeviation="2"/>
<feComposite in2="hardAlpha" operator="out"/>
<feColorMatrix type="matrix" values="0 0 0 0 0 0 0 0 0 0 0 0 0 0 0 0 0 0 0.25 0"/>
<feBlend mode="normal" in2="BackgroundImageFix" result="effect1_dropShadow"/>
<feBlend mode="normal" in="SourceGraphic" in2="effect1_dropShadow" result="shape"/>
</filter>
</defs>
</svg>
