<svg width="150" height="150" viewBox="0 0 150 150" fill="none" xmlns="http://www.w3.org/2000/svg">
<path d="M22.4697 27.2727L25.1966 35.4662H34.021L26.8819 40.53L29.6088 48.7235L22.4697 43.6597L15.3306 48.7235L18.0575 40.53L10.9184 35.4662H19.7428L22.4697 27.2727Z" fill="#FAFF00"/>
<path d="M75.9109 0L78.6378 8.19347H87.4622L80.3231 13.2573L83.05 21.4508L75.9109 16.3869L68.7719 21.4508L71.4987 13.2573L64.3597 8.19347H73.1841L75.9109 0Z" fill="#FAFF00"/>
<path d="M106.275 6.52174L109.002 14.7152H117.827L110.688 19.7791L113.414 27.9725L106.275 22.9087L99.1362 27.9725L101.863 19.7791L94.724 14.7152H103.548L106.275 6.52174Z" fill="#FAFF00"/>
<path d="M128.745 29.6443L131.472 37.8378H140.296L133.157 42.9016L135.884 51.0951L128.745 46.0312L121.606 51.0951L124.333 42.9016L117.194 37.8378H126.018L128.745 29.6443Z" fill="#FAFF00"/>
<path d="M137.854 58.1028L140.581 66.2962H149.406L142.266 71.3601L144.993 79.5536L137.854 74.4897L130.715 79.5536L133.442 71.3601L126.303 66.2962H135.127L137.854 58.1028Z" fill="#FAFF00"/>
<path d="M133.603 87.747L136.33 95.9405H145.155L138.015 101.004L140.742 109.198L133.603 104.134L126.464 109.198L129.191 101.004L122.052 95.9405H130.876L133.603 87.747Z" fill="#FAFF00"/>
<path d="M117.206 112.055L119.933 120.249H128.758L121.619 125.313L124.346 133.506L117.206 128.442L110.067 133.506L112.794 125.313L105.655 120.249H114.48L117.206 112.055Z" fill="#FAFF00"/>
<path d="M90.4858 126.285L93.2127 134.478H102.037L94.898 139.542L97.6249 147.735L90.4858 142.671L83.3467 147.735L86.0736 139.542L78.9345 134.478H87.7589L90.4858 126.285Z" fill="#FAFF00"/>
<path d="M58.2996 124.506L61.0265 132.699H69.8509L62.7118 137.763L65.4387 145.957L58.2996 140.893L51.1605 145.957L53.8874 137.763L46.7483 132.699H55.5727L58.2996 124.506Z" fill="#FAFF00"/>
<path d="M31.5789 109.091L34.3058 117.284H43.1302L35.9911 122.348L38.718 130.542L31.5789 125.478L24.4398 130.542L27.1667 122.348L20.0276 117.284H28.852L31.5789 109.091Z" fill="#FAFF00"/>
<path d="M15.1822 84.1897L17.9091 92.3832H26.7335L19.5944 97.447L22.3213 105.64L15.1822 100.577L8.0431 105.64L10.77 97.447L3.63089 92.3832H12.4553L15.1822 84.1897Z" fill="#FAFF00"/>
<path d="M12.1457 54.5454L14.8726 62.7389H23.697L16.558 67.8028L19.2848 75.9962L12.1457 70.9324L5.00666 75.9962L7.73355 67.8028L0.594456 62.7389H9.41886L12.1457 54.5454Z" fill="#FAFF00"/>
<path d="M44.332 6.52174L47.0589 14.7152H55.8833L48.7442 19.7791L51.4711 27.9725L44.332 22.9087L37.1929 27.9725L39.9198 19.7791L32.7807 14.7152H41.6051L44.332 6.52174Z" fill="#FAFF00"/>
</svg>
